<svg width="26" height="26" viewBox="0 0 26 26" fill="none" xmlns="http://www.w3.org/2000/svg">
<path fill-rule="evenodd" clip-rule="evenodd" d="M13 23C18.5228 23 23 18.5228 23 13C23 11.7229 22.7606 10.5016 22.3242 9.37878C22.2517 9.19215 22.2893 8.97927 22.4277 8.83458L23.9372 7.25651C24.1708 7.0122 24.5745 7.0656 24.7211 7.37023C25.5407 9.07363 26 10.9832 26 13C26 20.1797 20.1797 26 13 26C5.8203 26 0 20.1797 0 13C0 5.8203 5.8203 0 13 0C15.9073 0 18.5917 0.95437 20.757 2.56691C20.9914 2.74144 21.0123 3.08079 20.8103 3.29194L19.4133 4.75245C19.2366 4.93719 18.9498 4.95772 18.7406 4.8108C17.1158 3.66978 15.1361 3 13 3C7.47715 3 3 7.47715 3 13C3 18.5228 7.47715 23 13 23ZM19.8641 5.72786C19.8641 5.72785 19.8641 5.72785 19.8641 5.72784L21.9378 3.55987C21.9378 3.55988 21.9378 3.55989 21.9379 3.55989L23.3235 2.1113C23.8961 1.51264 24.8456 1.49154 25.4443 2.06417C26.0429 2.6368 26.064 3.58631 25.4914 4.18497L23.8751 5.87467L21.7294 8.11796L14.084 16.1109C13.5333 16.6866 12.6287 16.7314 12.0238 16.2129L8.3942 13.1018C7.76521 12.5627 7.69237 11.6158 8.2315 10.9868C8.77064 10.3578 9.71759 10.2849 10.3466 10.8241L12.8978 13.0108L19.8641 5.72786Z" fill="#84AC99"/>
</svg>
