<svg width="21" height="27" viewBox="0 0 21 27" fill="none" xmlns="http://www.w3.org/2000/svg">
    <path fill-rule="evenodd" clip-rule="evenodd"
        d="M10.8103 0C7.49137 0 0.853516 1.97078 0.853516 9.8539C0.853516 14.062 4.4852 18.989 8.64675 24.6347C9.00737 25.124 9.37197 25.6186 9.73853 26.1187C10.2585 26.8279 11.3621 26.8279 11.8821 26.1187C12.2482 25.6192 12.6127 25.1248 12.9728 24.6361L12.9739 24.6347L12.9739 24.6347C17.1354 18.9889 20.7671 14.062 20.7671 9.8539C20.7671 1.97078 14.1292 0 10.8103 0ZM10.8103 11.4169C11.9101 11.4169 12.8017 10.565 12.8017 9.51411C12.8017 8.46321 11.9101 7.61129 10.8103 7.61129C9.7105 7.61129 8.81894 8.46321 8.81894 9.51411C8.81894 10.565 9.7105 11.4169 10.8103 11.4169Z"
        fill="#425466" />
</svg>