<svg width="66" height="38" viewBox="0 0 66 38" fill="none" xmlns="http://www.w3.org/2000/svg">
  <path fill-rule="evenodd" clip-rule="evenodd" d="M60.9623 30.8971C60.9759 31.0794 60.9877 31.2621 60.9978 31.4452C61.0449 32.303 60.3429 33 59.4826 33H6.51748C5.65713 33 4.95516 32.303 5.00226 31.4452C5.01232 31.2621 5.02414 31.0794 5.03771 30.8971C5.04391 30.814 5.05046 30.7309 5.05738 30.648C5.14238 29.6289 5.71018 28.7657 6.51748 28.2637C6.66115 28.1744 6.81242 28.0965 6.96989 28.0313C6.99587 28.0205 7.02201 28.0101 7.04833 28C7.14448 27.9632 7.24282 27.931 7.34303 27.9037C6.33489 27.1273 5.86871 25.7768 6.27742 24.4953C6.30209 24.4179 6.3271 24.3407 6.35243 24.2636C6.79495 22.917 7.3368 21.6157 7.96919 20.3683C8.00723 20.2933 8.0456 20.2185 8.08429 20.1438C8.70327 18.9498 9.98901 18.3248 11.2512 18.4878C10.6193 17.3851 10.7077 15.9604 11.5766 14.9338C11.6288 14.8721 11.6813 14.8106 11.7341 14.7494C12.653 13.6826 13.6511 12.6858 14.7193 11.7679C14.7819 11.7142 14.8447 11.6606 14.9078 11.6074C15.9358 10.7397 17.3626 10.6515 18.4669 11.2825C18.3037 10.0221 18.9296 8.73821 20.1253 8.12012C20.195 8.08409 20.2649 8.04834 20.3349 8.01288C21.5916 7.37662 22.9031 6.83188 24.2605 6.38763C24.3346 6.3634 24.4088 6.33947 24.4831 6.31584C25.7664 5.90772 27.1189 6.37323 27.8964 7.37992C28.231 6.15393 29.303 5.20915 30.6446 5.09756C30.7214 5.09118 30.7982 5.0851 30.875 5.07934C31.577 5.02674 32.2857 5 33 5C33.7144 5 34.423 5.02674 35.125 5.07934C35.2019 5.0851 35.2787 5.09118 35.3554 5.09756C36.697 5.20915 37.769 6.15393 38.1036 7.37992C38.8812 6.37323 40.2336 5.90772 41.517 6.31584C41.5913 6.33947 41.6655 6.3634 41.7395 6.38763C43.0969 6.83188 44.4084 7.37662 45.6651 8.01287C45.7352 8.04834 45.805 8.08409 45.8747 8.12012C47.0704 8.7382 47.6964 10.0221 47.5331 11.2824C48.6374 10.6515 50.0642 10.7397 51.0922 11.6074C51.1553 11.6606 51.2181 11.7141 51.2807 11.7679C52.3489 12.6857 53.347 13.6826 54.266 14.7494C54.3187 14.8106 54.3712 14.8721 54.4234 14.9338C55.2924 15.9603 55.3807 17.3851 54.7489 18.4878C56.011 18.3248 57.2968 18.9498 57.9158 20.1438C57.9544 20.2184 57.9928 20.2933 58.0309 20.3683C58.6632 21.6157 59.2051 22.917 59.6476 24.2636C59.6729 24.3407 59.698 24.4179 59.7226 24.4953C60.1313 25.7768 59.6651 27.1273 58.657 27.9037C58.7572 27.931 58.8556 27.9632 58.9517 28C58.978 28.0101 59.0042 28.0205 59.0302 28.0313C59.1876 28.0965 59.3389 28.1744 59.4826 28.2637C60.2899 28.7656 60.8577 29.6289 60.9427 30.648C60.9496 30.7309 60.9561 30.814 60.9623 30.8971ZM64.774 26.6918C65.4081 27.7319 65.8169 28.9324 65.9254 30.2324C65.9514 30.5443 65.973 30.8573 65.9903 31.1711C66.205 35.0826 63.0193 38 59.4826 38H6.51748C2.98072 38 -0.204988 35.0826 0.00978347 31.1711C0.0270168 30.8572 0.0486648 30.5443 0.0746829 30.2324M64.774 26.6918C64.9635 25.4871 64.883 24.2201 64.4862 22.976C63.9177 21.1935 63.2023 19.4776 62.3547 17.8426C61.7544 16.6846 60.9151 15.7337 59.9295 15.0174C59.6417 13.8345 59.0816 12.6978 58.2397 11.7034C57.0441 10.2908 55.7317 8.98036 54.3173 7.78652C53.3212 6.94578 52.1832 6.38695 50.9992 6.10038C50.2813 5.11527 49.329 4.27719 48.1707 3.67845C46.534 2.83242 44.8164 2.11836 43.0323 1.55098C41.7877 1.15517 40.5194 1.07519 39.3132 1.26553C38.2715 0.631237 37.0697 0.222875 35.7698 0.114763C34.8549 0.0386686 33.9311 0 33 0C32.0689 0 31.1451 0.0386686 30.2302 0.114763C28.9304 0.222875 27.7286 0.631236 26.6868 1.26553C25.4806 1.07519 24.2124 1.15517 22.9678 1.55098C21.1836 2.11836 19.466 2.83242 17.8293 3.67845C16.671 4.27719 15.7187 5.11527 15.0008 6.10039C13.8168 6.38695 12.6788 6.94579 11.6828 7.78652C10.2684 8.98036 8.95599 10.2908 7.7603 11.7034C6.91848 12.6979 6.35835 13.8345 6.0705 15.0174C5.08492 15.7337 4.24566 16.6846 3.64533 17.8426C2.79775 19.4776 2.08232 21.1935 1.51382 22.976C1.11704 24.2201 1.0365 25.4871 1.22606 26.6918C0.59195 27.7319 0.183125 28.9324 0.0746829 30.2324" fill="#F8F8F8"/>
  <path d="M60.9978 31.4452C61.0449 32.303 60.3429 33 59.4826 33H6.51748C5.65713 33 4.95516 32.303 5.00226 31.4452C5.01691 31.1785 5.03529 30.9128 5.05738 30.648C5.16912 29.3083 6.11527 28.2378 7.34303 27.9037C6.33489 27.1273 5.86871 25.7768 6.27742 24.4953C6.75915 22.9848 7.36553 21.5303 8.08429 20.1438C8.70327 18.9498 9.98901 18.3248 11.2512 18.4878C10.6193 17.3851 10.7077 15.9604 11.5766 14.9338C12.592 13.7343 13.7066 12.6213 14.9078 11.6074C15.9358 10.7397 17.3626 10.6515 18.4669 11.2825C18.3037 10.0221 18.9296 8.73821 20.1253 8.12012C21.5138 7.4024 22.9704 6.79688 24.4831 6.31584C25.7664 5.90772 27.1189 6.37323 27.8964 7.37992C28.231 6.15393 29.303 5.20915 30.6446 5.09756C31.4218 5.03292 32.2074 5 33 5C33.7926 5 34.5782 5.03292 35.3554 5.09756C36.697 5.20915 37.769 6.15393 38.1036 7.37992C38.8812 6.37323 40.2336 5.90772 41.517 6.31584C43.0296 6.79688 44.4863 7.4024 45.8747 8.12012C47.0704 8.7382 47.6964 10.0221 47.5331 11.2824C48.6374 10.6515 50.0642 10.7397 51.0922 11.6074C52.2935 12.6213 53.4081 13.7343 54.4234 14.9338C55.2924 15.9603 55.3807 17.3851 54.7489 18.4878C56.011 18.3248 57.2968 18.9498 57.9158 20.1438C58.6345 21.5303 59.2409 22.9848 59.7226 24.4953C60.1313 25.7768 59.6651 27.1273 58.657 27.9037C59.8848 28.2378 60.8309 29.3083 60.9427 30.648C60.9648 30.9128 60.9831 31.1785 60.9978 31.4452Z" fill="#D4AB7B"/>
</svg>